<?xml version="1.0" encoding="UTF-8"?>
<!DOCTYPE svg PUBLIC "-//W3C//DTD SVG 1.1//EN" "http://www.w3.org/Graphics/SVG/1.1/DTD/svg11.dtd">
<!-- Creator: CorelDRAW -->
<svg xmlns="http://www.w3.org/2000/svg" xml:space="preserve" width="128px" height="128px" version="1.1" style="shape-rendering:geometricPrecision; text-rendering:geometricPrecision; image-rendering:optimizeQuality; fill-rule:evenodd; clip-rule:evenodd"
viewBox="0 0 181.904 181.904"
 xmlns:xlink="http://www.w3.org/1999/xlink"
 xmlns:xodm="http://www.corel.com/coreldraw/odm/2003">
 <defs>
  <style type="text/css">
   <![CDATA[
    .fil0 {fill:none}
    .fil2 {fill:#1A74E2}
    .fil1 {fill:#010013;fill-rule:nonzero}
   ]]>
  </style>
 </defs>
 <g id="Layer_x0020_1">
  <metadata id="CorelCorpID_0Corel-Layer"/>
  <rect class="fil0" width="181.904" height="181.904"/>
  <g id="_1959560264880">
   <g>
    <path class="fil1" d="M33.747 159.274c-1.149,0.003 -2.084,-0.926 -2.088,-2.076 -0.003,-1.149 0.927,-2.084 2.076,-2.087l0.012 4.163zm23.416 -0.066l-23.416 0.066 -0.012 -4.163 23.416 -0.066 0.006 0 0.006 4.163zm-0.012 -4.163c1.149,-0.003 2.084,0.926 2.087,2.075 0.003,1.15 -0.926,2.085 -2.075,2.088l-0.012 -4.163zm8 -3.32l2.943 2.944 0 0 -0.265 0.259 -0.272 0.253 -0.278 0.247 -0.283 0.24 -0.29 0.233 -0.294 0.226 -0.301 0.219 -0.305 0.212 -0.312 0.206 -0.317 0.198 -0.321 0.189 -0.326 0.184 -0.333 0.175 -0.334 0.167 -0.341 0.16 -0.346 0.151 -0.349 0.143 -0.355 0.135 -0.356 0.126 -0.362 0.118 -0.366 0.109 -0.369 0.1 -0.373 0.091 -0.376 0.082 -0.378 0.073 -0.384 0.064 -0.385 0.054 -0.388 0.045 -0.391 0.035 -0.394 0.025 -0.396 0.015 -0.397 0.005 0 -4.163 0.292 -0.004 0.29 -0.011 0.287 -0.018 0.286 -0.026 0.284 -0.033 0.281 -0.039 0.278 -0.046 0.278 -0.054 0.274 -0.06 0.271 -0.066 0.27 -0.073 0.265 -0.08 0.264 -0.085 0.262 -0.093 0.257 -0.098 0.256 -0.105 0.251 -0.11 0.248 -0.116 0.247 -0.123 0.242 -0.127 0.238 -0.134 0.236 -0.14 0.232 -0.144 0.227 -0.15 0.224 -0.156 0.22 -0.16 0.217 -0.167 0.212 -0.17 0.207 -0.176 0.204 -0.18 0.199 -0.185 0.195 -0.191 0 0zm0 0c0.812,-0.813 2.131,-0.813 2.943,0 0.813,0.813 0.813,2.131 0,2.944l-2.943 -2.944zm3.319 -7.994l4.163 0 0 0 -0.005 0.397 -0.015 0.396 -0.025 0.394 -0.035 0.391 -0.044 0.388 -0.054 0.386 -0.064 0.383 -0.073 0.379 -0.082 0.375 -0.092 0.374 -0.1 0.368 -0.109 0.366 -0.118 0.362 -0.126 0.358 -0.135 0.354 -0.143 0.349 -0.151 0.345 -0.159 0.34 -0.168 0.337 -0.176 0.333 -0.183 0.325 -0.189 0.32 -0.198 0.317 -0.205 0.312 -0.213 0.306 -0.219 0.3 -0.226 0.295 -0.234 0.291 -0.239 0.282 -0.246 0.277 -0.253 0.272 -0.26 0.266 -2.943 -2.944 0.19 -0.194 0.184 -0.198 0.181 -0.205 0.176 -0.209 0.171 -0.211 0.166 -0.216 0.161 -0.22 0.155 -0.224 0.15 -0.228 0.144 -0.231 0.14 -0.237 0.134 -0.239 0.128 -0.241 0.121 -0.244 0.117 -0.25 0.111 -0.252 0.104 -0.256 0.099 -0.257 0.092 -0.261 0.086 -0.264 0.079 -0.266 0.073 -0.269 0.067 -0.271 0.059 -0.275 0.054 -0.278 0.046 -0.278 0.04 -0.281 0.032 -0.284 0.026 -0.285 0.018 -0.288 0.011 -0.29 0.004 -0.292 0 0zm0 0c0,-1.149 0.932,-2.082 2.082,-2.082 1.149,0 2.081,0.933 2.081,2.082l-4.163 0zm0.017 -18.951l4.163 0.077 -0.01 0.525 -0.008 0.538 -0.007 0.548 -0.006 0.559 -0.005 0.569 -0.005 0.578 -0.003 0.586 -0.003 0.593 -0.002 0.599 -0.001 0.606 -0.001 0.61 0 0.615 0 0.617 0.001 0.621 0.001 0.622 0.001 0.623 0.002 0.623 0.002 0.623 0.003 0.621 0.002 0.619 0.005 1.229 0.005 1.21 0.005 1.187 0.004 1.156 0.001 0.565 0.001 0.555 0.001 0.544 0 0.533 -4.163 0 0 -0.53 -0.001 -0.541 -0.001 -0.551 -0.001 -0.562 -0.004 -1.154 -0.005 -1.184 -0.005 -1.211 -0.005 -1.229 -0.002 -0.62 -0.003 -0.623 -0.002 -0.624 -0.002 -0.625 -0.001 -0.626 -0.001 -0.624 -0.001 -0.623 0 -0.621 0 -0.619 0.001 -0.614 0.001 -0.609 0.002 -0.605 0.003 -0.599 0.004 -0.592 0.004 -0.584 0.005 -0.575 0.006 -0.568 0.007 -0.556 0.009 -0.547 0.009 -0.535zm0 0c0.021,-1.149 0.971,-2.064 2.12,-2.043 1.149,0.022 2.064,0.971 2.043,2.12l-4.163 -0.077zm23.517 37.117c-0.006,1.149 -0.944,2.076 -2.093,2.07 -1.149,-0.007 -2.076,-0.945 -2.069,-2.094l4.162 0.024zm-3.978 -46.497l4.163 0 0 1.267 -0.001 1.305 -0.002 1.338 -0.002 1.368 -0.002 1.399 -0.004 1.425 -0.003 1.448 -0.004 1.471 -0.004 1.489 -0.005 1.507 -0.005 1.52 -0.006 1.533 -0.006 1.542 -0.006 1.55 -0.006 1.553 -0.007 1.557 -0.007 1.556 -0.007 1.554 -0.007 1.548 -0.008 1.542 -0.015 3.05 -0.016 2.99 -0.016 2.912 -0.015 2.815 -0.016 2.698 -0.015 2.56 -4.162 -0.024 0.014 -2.56 0.016 -2.697 0.015 -2.814 0.016 -2.912 0.016 -2.99 0.015 -3.049 0.008 -1.541 0.007 -1.547 0.007 -1.553 0.007 -1.556 0.007 -1.556 0.006 -1.553 0.007 -1.549 0.005 -1.541 0.006 -1.532 0.005 -1.52 0.005 -1.506 0.004 -1.488 0.004 -1.469 0.004 -1.448 0.003 -1.423 0.002 -1.397 0.002 -1.368 0.002 -1.336 0.001 -1.302 0 -1.266zm0 0c0,-1.15 0.932,-2.082 2.081,-2.082 1.15,0 2.082,0.932 2.082,2.082l-4.163 0zm60.376 39.711c1.149,0.003 2.078,0.938 2.076,2.087 -0.003,1.149 -0.938,2.079 -2.088,2.076l0.012 -4.163zm-24.809 -0.066l24.809 0.066 -0.012 4.163 -24.809 -0.066 0.006 -4.163 0.006 0zm-0.012 4.163c-1.149,-0.003 -2.078,-0.938 -2.076,-2.087 0.003,-1.15 0.938,-2.079 2.088,-2.076l-0.012 4.163zm-10.932 -4.539l2.944 -2.944 0 0 0.195 0.191 0.199 0.185 0.203 0.18 0.208 0.176 0.212 0.17 0.216 0.166 0.22 0.161 0.225 0.156 0.228 0.15 0.231 0.145 0.236 0.139 0.238 0.134 0.241 0.127 0.247 0.123 0.248 0.116 0.252 0.11 0.256 0.105 0.256 0.098 0.262 0.093 0.264 0.085 0.266 0.08 0.269 0.073 0.271 0.066 0.275 0.06 0.278 0.054 0.278 0.046 0.281 0.039 0.284 0.033 0.285 0.026 0.288 0.018 0.289 0.011 0.293 0.004 0 4.163 -0.397 -0.005 -0.396 -0.015 -0.394 -0.025 -0.391 -0.035 -0.388 -0.045 -0.386 -0.054 -0.383 -0.064 -0.378 -0.073 -0.376 -0.082 -0.373 -0.091 -0.369 -0.1 -0.367 -0.109 -0.361 -0.118 -0.357 -0.126 -0.355 -0.135 -0.349 -0.143 -0.345 -0.151 -0.341 -0.16 -0.335 -0.167 -0.332 -0.175 -0.327 -0.184 -0.321 -0.189 -0.317 -0.198 -0.311 -0.206 -0.305 -0.212 -0.3 -0.219 -0.296 -0.226 -0.289 -0.233 -0.284 -0.24 -0.278 -0.247 -0.271 -0.253 -0.266 -0.259 0 0zm0 0c-0.812,-0.813 -0.812,-2.131 0,-2.944 0.813,-0.813 2.131,-0.813 2.944,0l-2.944 2.944zm-4.538 -10.938l4.163 0 0 0 0.004 0.292 0.011 0.29 0.018 0.288 0.025 0.285 0.033 0.284 0.04 0.281 0.046 0.278 0.053 0.278 0.06 0.275 0.067 0.271 0.073 0.269 0.079 0.266 0.086 0.264 0.093 0.262 0.097 0.256 0.105 0.256 0.11 0.252 0.117 0.248 0.123 0.247 0.127 0.241 0.133 0.238 0.14 0.237 0.145 0.231 0.149 0.227 0.156 0.225 0.161 0.22 0.166 0.216 0.17 0.212 0.176 0.208 0.181 0.204 0.185 0.198 0.19 0.195 -2.944 2.944 -0.259 -0.265 -0.253 -0.272 -0.246 -0.278 -0.24 -0.283 -0.233 -0.29 -0.226 -0.295 -0.22 -0.3 -0.212 -0.305 -0.205 -0.313 -0.198 -0.317 -0.19 -0.32 -0.183 -0.327 -0.176 -0.332 -0.166 -0.335 -0.16 -0.341 -0.151 -0.345 -0.143 -0.349 -0.135 -0.355 -0.126 -0.357 -0.118 -0.362 -0.109 -0.366 -0.1 -0.368 -0.092 -0.374 -0.082 -0.375 -0.073 -0.379 -0.064 -0.383 -0.054 -0.386 -0.045 -0.388 -0.034 -0.391 -0.026 -0.394 -0.014 -0.396 -0.005 -0.397 0 0zm0 0c0,-1.149 0.932,-2.082 2.081,-2.082 1.149,0 2.082,0.933 2.082,2.082l-4.163 0zm0.038 -18.422l4.163 -0.077 0.009 0.534 0.008 0.545 0.006 0.551 0.005 0.559 0.004 0.567 0.003 0.573 0.002 0.579 0.001 0.583 0 0.589 -0.001 0.593 -0.001 0.596 -0.002 0.599 -0.003 0.601 -0.003 0.602 -0.004 0.604 -0.004 0.605 -0.009 1.207 -0.01 1.201 -0.01 1.191 -0.009 1.175 -0.004 0.58 -0.004 0.575 -0.004 0.567 -0.002 0.561 -0.003 0.554 -0.002 0.546 -0.001 0.535 0 0.527 -4.163 0 0 -0.533 0.001 -0.542 0.002 -0.549 0.003 -0.557 0.003 -0.565 0.003 -0.572 0.004 -0.576 0.004 -0.582 0.01 -1.177 0.009 -1.192 0.01 -1.2 0.009 -1.204 0.004 -0.601 0.004 -0.601 0.003 -0.6 0.003 -0.597 0.002 -0.595 0.001 -0.592 0.001 -0.586 0 -0.583 -0.001 -0.577 -0.002 -0.572 -0.003 -0.565 -0.004 -0.557 -0.005 -0.551 -0.006 -0.542 -0.008 -0.531 -0.009 -0.523zm0 0c-0.021,-1.149 0.893,-2.099 2.043,-2.12 1.149,-0.021 2.099,0.893 2.12,2.043l-4.163 0.077zm16.167 -116.634l-3.957 -1.293 0.955 2.459 -0.404 -0.226 -0.405 -0.223 -0.408 -0.22 -0.409 -0.217 -0.411 -0.214 -0.413 -0.211 -0.414 -0.208 -0.417 -0.206 -0.418 -0.201 -0.42 -0.2 -0.422 -0.196 -0.423 -0.193 -0.425 -0.19 -0.426 -0.186 -0.429 -0.184 -0.43 -0.18 -0.432 -0.178 -0.433 -0.174 -0.435 -0.17 -0.436 -0.168 -0.439 -0.165 -0.438 -0.161 -0.442 -0.158 -0.443 -0.155 -0.443 -0.152 -0.446 -0.148 -0.448 -0.145 -0.448 -0.142 -0.449 -0.138 -0.452 -0.135 -0.453 -0.131 -0.455 -0.128 1.116 -4.012 0.485 0.137 0.484 0.141 0.481 0.143 0.482 0.149 0.479 0.151 0.476 0.154 0.476 0.159 0.476 0.162 0.472 0.165 0.47 0.169 0.471 0.172 0.467 0.176 0.466 0.179 0.464 0.182 0.462 0.187 0.462 0.189 0.458 0.192 0.458 0.196 0.456 0.2 0.454 0.203 0.451 0.206 0.451 0.209 0.447 0.212 0.447 0.216 0.444 0.219 0.443 0.222 0.44 0.226 0.439 0.228 0.437 0.232 0.435 0.235 0.433 0.238 0.431 0.241 0.955 2.459zm-0.955 -2.459c1.001,0.565 1.354,1.835 0.789,2.836 -0.565,1.001 -1.835,1.355 -2.836,0.789l2.047 -3.625zm5.128 19.919l-2.943 2.944 0 0 -0.538 -0.556 -0.513 -0.572 -0.49 -0.586 -0.465 -0.599 -0.441 -0.611 -0.417 -0.624 -0.393 -0.634 -0.369 -0.646 -0.344 -0.655 -0.32 -0.664 -0.296 -0.672 -0.272 -0.68 -0.247 -0.687 -0.223 -0.694 -0.198 -0.698 -0.175 -0.705 -0.149 -0.708 -0.126 -0.712 -0.102 -0.715 -0.077 -0.718 -0.052 -0.719 -0.029 -0.721 -0.004 -0.72 0.02 -0.721 0.044 -0.719 0.068 -0.719 0.093 -0.716 0.117 -0.713 0.141 -0.71 0.166 -0.706 0.189 -0.701 0.215 -0.696 3.957 1.293 -0.172 0.56 -0.153 0.564 -0.133 0.567 -0.114 0.571 -0.094 0.575 -0.075 0.577 -0.055 0.578 -0.035 0.58 -0.017 0.581 0.004 0.58 0.023 0.581 0.042 0.579 0.063 0.578 0.081 0.575 0.102 0.574 0.121 0.57 0.139 0.566 0.16 0.562 0.18 0.558 0.198 0.552 0.218 0.546 0.238 0.541 0.257 0.533 0.276 0.526 0.297 0.518 0.315 0.511 0.335 0.501 0.355 0.491 0.375 0.483 0.394 0.471 0.414 0.461 0.434 0.45 0 0zm0 0c0.813,0.813 0.813,2.131 0,2.944 -0.812,0.813 -2.131,0.813 -2.943,0l2.943 -2.944zm19.914 5.128l-3.624 2.049 2.459 0.954 -0.695 0.214 -0.701 0.19 -0.706 0.166 -0.709 0.141 -0.713 0.117 -0.716 0.093 -0.718 0.068 -0.719 0.044 -0.721 0.02 -0.72 -0.004 -0.72 -0.029 -0.72 -0.053 -0.717 -0.077 -0.715 -0.101 -0.712 -0.126 -0.708 -0.15 -0.704 -0.174 -0.7 -0.199 -0.692 -0.222 -0.688 -0.247 -0.68 -0.272 -0.672 -0.296 -0.664 -0.32 -0.655 -0.344 -0.645 -0.369 -0.635 -0.393 -0.623 -0.417 -0.612 -0.441 -0.598 -0.466 -0.586 -0.489 -0.572 -0.513 -0.556 -0.538 2.943 -2.944 0.45 0.435 0.461 0.413 0.472 0.395 0.482 0.374 0.492 0.356 0.501 0.334 0.51 0.316 0.518 0.296 0.526 0.277 0.534 0.257 0.539 0.238 0.547 0.218 0.552 0.198 0.558 0.179 0.562 0.16 0.566 0.141 0.57 0.12 0.573 0.102 0.576 0.081 0.577 0.062 0.579 0.043 0.581 0.023 0.58 0.003 0.58 -0.016 0.58 -0.036 0.578 -0.054 0.576 -0.075 0.575 -0.094 0.57 -0.114 0.568 -0.133 0.563 -0.153 0.559 -0.172 2.459 0.954zm-2.459 -0.954c1.092,-0.357 2.269,0.239 2.626,1.331 0.357,1.093 -0.24,2.269 -1.332,2.626l-1.294 -3.957zm7.491 18.066l-1.884 -3.712 -1.063 2.414 -0.129 -0.455 -0.131 -0.452 -0.136 -0.452 -0.138 -0.45 -0.141 -0.448 -0.146 -0.447 -0.148 -0.447 -0.151 -0.443 -0.155 -0.442 -0.159 -0.442 -0.161 -0.439 -0.165 -0.439 -0.167 -0.435 -0.171 -0.435 -0.175 -0.434 -0.177 -0.431 -0.181 -0.431 -0.183 -0.428 -0.188 -0.427 -0.189 -0.424 -0.193 -0.423 -0.196 -0.422 -0.2 -0.42 -0.202 -0.418 -0.205 -0.417 -0.209 -0.415 -0.211 -0.412 -0.215 -0.411 -0.217 -0.41 -0.22 -0.407 -0.224 -0.405 -0.226 -0.404 3.624 -2.049 0.242 0.431 0.238 0.433 0.235 0.435 0.232 0.436 0.229 0.439 0.226 0.441 0.223 0.443 0.219 0.444 0.216 0.446 0.213 0.449 0.209 0.45 0.206 0.452 0.203 0.454 0.199 0.456 0.197 0.457 0.193 0.459 0.189 0.462 0.186 0.461 0.183 0.465 0.179 0.466 0.176 0.468 0.172 0.469 0.169 0.47 0.166 0.473 0.162 0.476 0.157 0.475 0.156 0.477 0.151 0.48 0.147 0.48 0.145 0.482 0.141 0.484 0.136 0.485 -1.063 2.414zm1.063 -2.414c0.308,1.107 -0.34,2.255 -1.447,2.563 -1.108,0.308 -2.256,-0.34 -2.563,-1.447l4.01 -1.116zm-10.464 17.712l-4.163 0 0 0 0.014 -0.774 0.041 -0.767 0.068 -0.761 0.095 -0.752 0.12 -0.744 0.146 -0.736 0.171 -0.728 0.196 -0.716 0.22 -0.707 0.243 -0.696 0.267 -0.684 0.289 -0.673 0.311 -0.661 0.333 -0.648 0.354 -0.634 0.375 -0.622 0.396 -0.607 0.414 -0.591 0.435 -0.578 0.453 -0.562 0.471 -0.546 0.49 -0.53 0.506 -0.512 0.524 -0.495 0.54 -0.478 0.557 -0.459 0.572 -0.442 0.588 -0.421 0.601 -0.402 0.617 -0.383 0.63 -0.361 0.643 -0.34 1.884 3.712 -0.518 0.274 -0.507 0.291 -0.495 0.307 -0.485 0.324 -0.473 0.34 -0.461 0.355 -0.448 0.37 -0.435 0.385 -0.422 0.399 -0.409 0.414 -0.394 0.426 -0.38 0.44 -0.365 0.452 -0.35 0.465 -0.333 0.477 -0.319 0.488 -0.301 0.5 -0.285 0.511 -0.268 0.52 -0.25 0.531 -0.232 0.541 -0.215 0.55 -0.195 0.559 -0.177 0.567 -0.157 0.576 -0.137 0.584 -0.118 0.591 -0.096 0.598 -0.076 0.607 -0.056 0.612 -0.033 0.619 -0.011 0.625 0 0zm0 0c0,1.149 -0.932,2.081 -2.081,2.081 -1.15,0 -2.082,-0.932 -2.082,-2.081l4.163 0zm10.465 17.711l-4.012 -1.114 1.065 2.414 -0.644 -0.341 -0.63 -0.361 -0.616 -0.382 -0.602 -0.401 -0.588 -0.422 -0.571 -0.44 -0.558 -0.46 -0.54 -0.478 -0.523 -0.495 -0.507 -0.513 -0.49 -0.529 -0.471 -0.546 -0.453 -0.562 -0.435 -0.578 -0.414 -0.592 -0.396 -0.607 -0.375 -0.622 -0.354 -0.634 -0.333 -0.648 -0.311 -0.661 -0.289 -0.673 -0.267 -0.685 -0.243 -0.695 -0.22 -0.707 -0.196 -0.718 -0.171 -0.726 -0.146 -0.737 -0.12 -0.744 -0.095 -0.752 -0.068 -0.761 -0.041 -0.768 -0.014 -0.773 4.163 0 0.011 0.625 0.033 0.619 0.056 0.612 0.076 0.606 0.096 0.6 0.118 0.59 0.137 0.585 0.158 0.575 0.176 0.568 0.195 0.559 0.215 0.55 0.232 0.541 0.25 0.531 0.268 0.521 0.285 0.51 0.301 0.5 0.319 0.489 0.334 0.477 0.349 0.464 0.365 0.453 0.38 0.44 0.394 0.426 0.408 0.413 0.423 0.4 0.435 0.385 0.448 0.369 0.461 0.355 0.472 0.339 0.485 0.324 0.496 0.307 0.507 0.291 0.517 0.273 1.065 2.414zm-1.065 -2.414c1.025,0.52 1.435,1.773 0.916,2.798 -0.52,1.025 -1.773,1.435 -2.798,0.916l1.882 -3.714zm-7.49 18.067l1.294 -3.957 -2.459 0.954 0.226 -0.404 0.224 -0.406 0.22 -0.407 0.218 -0.41 0.215 -0.41 0.211 -0.413 0.208 -0.415 0.205 -0.415 0.203 -0.419 0.199 -0.42 0.196 -0.421 0.193 -0.423 0.19 -0.425 0.188 -0.427 0.183 -0.427 0.18 -0.43 0.178 -0.431 0.174 -0.434 0.171 -0.434 0.168 -0.437 0.165 -0.438 0.161 -0.439 0.158 -0.441 0.155 -0.442 0.151 -0.445 0.149 -0.446 0.144 -0.446 0.142 -0.45 0.139 -0.45 0.134 -0.451 0.132 -0.454 0.128 -0.454 4.012 1.114 -0.137 0.486 -0.141 0.484 -0.144 0.483 -0.148 0.481 -0.151 0.478 -0.155 0.479 -0.158 0.476 -0.162 0.474 -0.166 0.472 -0.168 0.472 -0.173 0.47 -0.176 0.468 -0.179 0.465 -0.183 0.464 -0.186 0.463 -0.189 0.46 -0.193 0.46 -0.197 0.458 -0.199 0.454 -0.202 0.454 -0.207 0.452 -0.209 0.45 -0.213 0.448 -0.216 0.446 -0.219 0.445 -0.223 0.442 -0.225 0.441 -0.23 0.439 -0.232 0.437 -0.235 0.434 -0.238 0.433 -0.242 0.431 -2.459 0.954zm2.459 -0.954c-0.566,1.001 -1.836,1.353 -2.837,0.787 -1.001,-0.566 -1.353,-1.836 -0.787,-2.836l3.624 2.049zm-19.914 5.127l-2.943 -2.944 0 0 0.556 -0.538 0.572 -0.513 0.585 -0.489 0.599 -0.466 0.612 -0.441 0.622 -0.417 0.635 -0.393 0.646 -0.369 0.654 -0.344 0.664 -0.32 0.673 -0.296 0.68 -0.271 0.687 -0.248 0.693 -0.222 0.699 -0.199 0.704 -0.174 0.709 -0.15 0.712 -0.125 0.715 -0.102 0.717 -0.077 0.719 -0.053 0.721 -0.028 0.721 -0.004 0.719 0.02 0.72 0.044 0.718 0.068 0.716 0.093 0.713 0.117 0.709 0.141 0.706 0.166 0.701 0.189 0.695 0.215 -1.294 3.957 -0.559 -0.172 -0.563 -0.153 -0.568 -0.133 -0.57 -0.114 -0.575 -0.094 -0.576 -0.075 -0.578 -0.054 -0.58 -0.036 -0.581 -0.016 -0.58 0.003 -0.579 0.023 -0.579 0.042 -0.579 0.063 -0.576 0.081 -0.572 0.101 -0.571 0.121 -0.566 0.14 -0.562 0.16 -0.558 0.179 -0.552 0.198 -0.546 0.219 -0.54 0.237 -0.533 0.257 -0.527 0.277 -0.517 0.296 -0.51 0.315 -0.501 0.336 -0.493 0.355 -0.481 0.374 -0.472 0.394 -0.461 0.414 -0.45 0.435 0 0zm0 0c-0.812,0.813 -2.131,0.813 -2.943,0 -0.813,-0.813 -0.813,-2.131 0,-2.944l2.943 2.944zm-5.128 19.92l-2.047 -3.626 -0.955 2.459 -0.215 -0.695 -0.189 -0.701 -0.166 -0.706 -0.141 -0.71 -0.117 -0.713 -0.093 -0.716 -0.068 -0.719 -0.044 -0.72 -0.02 -0.72 0.004 -0.721 0.029 -0.72 0.052 -0.719 0.077 -0.718 0.102 -0.716 0.126 -0.712 0.149 -0.708 0.175 -0.704 0.198 -0.699 0.223 -0.693 0.247 -0.688 0.272 -0.68 0.296 -0.672 0.32 -0.664 0.344 -0.655 0.369 -0.646 0.393 -0.634 0.417 -0.624 0.441 -0.611 0.465 -0.599 0.49 -0.586 0.513 -0.572 0.538 -0.556 2.943 2.944 -0.434 0.45 -0.414 0.461 -0.394 0.471 -0.375 0.483 -0.355 0.491 -0.335 0.501 -0.315 0.511 -0.297 0.518 -0.276 0.526 -0.257 0.533 -0.238 0.541 -0.218 0.546 -0.198 0.552 -0.18 0.558 -0.16 0.562 -0.139 0.566 -0.121 0.571 -0.102 0.573 -0.081 0.576 -0.063 0.577 -0.042 0.579 -0.023 0.581 -0.004 0.581 0.017 0.58 0.035 0.58 0.055 0.579 0.075 0.577 0.094 0.574 0.114 0.572 0.133 0.567 0.153 0.564 0.172 0.56 -0.955 2.459zm0.955 -2.459c0.357,1.093 -0.24,2.268 -1.333,2.625 -1.092,0.356 -2.268,-0.24 -2.624,-1.333l3.957 -1.292zm-18.066 7.485l3.713 -1.884 -2.415 -1.064 0.455 -0.128 0.453 -0.132 0.452 -0.135 0.449 -0.137 0.448 -0.142 0.448 -0.146 0.446 -0.147 0.443 -0.152 0.443 -0.155 0.442 -0.158 0.438 -0.161 0.439 -0.165 0.436 -0.168 0.435 -0.171 0.433 -0.174 0.432 -0.177 0.43 -0.181 0.429 -0.183 0.426 -0.186 0.425 -0.191 0.423 -0.193 0.422 -0.195 0.42 -0.2 0.418 -0.202 0.417 -0.205 0.414 -0.208 0.413 -0.211 0.411 -0.214 0.409 -0.217 0.408 -0.22 0.405 -0.223 0.404 -0.227 2.047 3.626 -0.431 0.241 -0.433 0.238 -0.435 0.235 -0.437 0.232 -0.439 0.228 -0.44 0.225 -0.443 0.223 -0.444 0.219 -0.447 0.215 -0.447 0.213 -0.451 0.209 -0.451 0.206 -0.454 0.203 -0.456 0.2 -0.458 0.196 -0.458 0.192 -0.462 0.189 -0.462 0.186 -0.464 0.183 -0.466 0.179 -0.467 0.176 -0.471 0.172 -0.47 0.169 -0.472 0.165 -0.476 0.162 -0.476 0.158 -0.476 0.155 -0.479 0.151 -0.482 0.148 -0.481 0.144 -0.484 0.141 -0.485 0.137 -2.414 -1.064zm2.414 1.064c-1.107,0.307 -2.256,-0.341 -2.563,-1.448 -0.308,-1.107 0.34,-2.256 1.447,-2.564l1.116 4.012zm-17.712 -10.46l0 -4.163 0 0 0.773 0.014 0.767 0.041 0.76 0.068 0.752 0.094 0.745 0.121 0.735 0.146 0.727 0.17 0.717 0.196 0.706 0.22 0.695 0.243 0.685 0.266 0.673 0.289 0.661 0.311 0.648 0.333 0.634 0.353 0.621 0.375 0.608 0.395 0.592 0.415 0.577 0.433 0.563 0.453 0.546 0.472 0.53 0.489 0.513 0.507 0.495 0.523 0.478 0.541 0.459 0.556 0.442 0.572 0.422 0.587 0.402 0.602 0.382 0.616 0.362 0.63 0.341 0.644 -3.713 1.884 -0.274 -0.517 -0.291 -0.507 -0.308 -0.496 -0.323 -0.485 -0.339 -0.472 -0.356 -0.461 -0.371 -0.448 -0.384 -0.435 -0.4 -0.422 -0.413 -0.409 -0.426 -0.393 -0.44 -0.38 -0.453 -0.364 -0.465 -0.35 -0.477 -0.334 -0.489 -0.318 -0.5 -0.301 -0.51 -0.285 -0.521 -0.267 -0.531 -0.251 -0.541 -0.232 -0.55 -0.214 -0.559 -0.195 -0.567 -0.176 -0.576 -0.157 -0.583 -0.138 -0.592 -0.117 -0.598 -0.097 -0.606 -0.075 -0.612 -0.056 -0.618 -0.033 -0.625 -0.011 0 0zm0 0c-1.149,0 -2.082,-0.932 -2.082,-2.081 0,-1.15 0.933,-2.082 2.082,-2.082l0 4.163zm-17.712 10.46l1.115 -4.012 -2.414 1.065 0.341 -0.644 0.361 -0.63 0.381 -0.616 0.402 -0.602 0.422 -0.587 0.44 -0.572 0.46 -0.557 0.478 -0.541 0.495 -0.523 0.513 -0.507 0.53 -0.489 0.545 -0.471 0.562 -0.453 0.578 -0.435 0.593 -0.414 0.606 -0.395 0.622 -0.375 0.634 -0.353 0.648 -0.333 0.661 -0.311 0.673 -0.289 0.685 -0.266 0.695 -0.243 0.708 -0.22 0.717 -0.196 0.727 -0.17 0.735 -0.146 0.745 -0.121 0.752 -0.094 0.761 -0.068 0.767 -0.041 0.774 -0.014 0 4.163 -0.625 0.011 -0.619 0.033 -0.613 0.056 -0.606 0.075 -0.599 0.097 -0.591 0.117 -0.584 0.138 -0.576 0.157 -0.567 0.176 -0.56 0.195 -0.55 0.214 -0.541 0.233 -0.531 0.25 -0.521 0.267 -0.51 0.285 -0.5 0.301 -0.488 0.318 -0.478 0.334 -0.464 0.349 -0.452 0.365 -0.44 0.379 -0.427 0.394 -0.413 0.409 -0.399 0.421 -0.385 0.436 -0.369 0.447 -0.356 0.461 -0.339 0.473 -0.323 0.484 -0.308 0.496 -0.29 0.507 -0.274 0.517 -2.414 1.065zm2.414 -1.065c-0.519,1.025 -1.772,1.435 -2.797,0.916 -1.025,-0.52 -1.436,-1.773 -0.916,-2.798l3.713 1.882zm-18.067 -7.483l3.959 1.29 -0.956 -2.458 0.403 0.226 0.406 0.224 0.408 0.22 0.408 0.217 0.411 0.214 0.414 0.211 0.415 0.208 0.416 0.205 0.417 0.202 0.421 0.199 0.422 0.196 0.424 0.193 0.424 0.191 0.426 0.186 0.429 0.183 0.43 0.181 0.432 0.177 0.433 0.174 0.435 0.171 0.436 0.168 0.439 0.165 0.438 0.161 0.442 0.158 0.443 0.155 0.443 0.152 0.446 0.147 0.448 0.146 0.448 0.142 0.45 0.137 0.452 0.135 0.452 0.132 0.454 0.128 -1.115 4.012 -0.485 -0.137 -0.484 -0.141 -0.481 -0.144 -0.482 -0.148 -0.479 -0.151 -0.477 -0.155 -0.475 -0.158 -0.476 -0.162 -0.472 -0.165 -0.47 -0.169 -0.471 -0.172 -0.467 -0.176 -0.465 -0.179 -0.465 -0.183 -0.462 -0.186 -0.461 -0.189 -0.459 -0.192 -0.458 -0.196 -0.456 -0.2 -0.454 -0.203 -0.451 -0.206 -0.45 -0.209 -0.448 -0.212 -0.447 -0.216 -0.445 -0.22 -0.442 -0.221 -0.44 -0.226 -0.439 -0.228 -0.438 -0.232 -0.434 -0.235 -0.433 -0.238 -0.431 -0.241 -0.956 -2.458zm0.956 2.458c-1.001,-0.565 -1.354,-1.835 -0.789,-2.836 0.564,-1.001 1.835,-1.354 2.836,-0.79l-2.047 3.626zm-5.129 -19.92l2.944 -2.944 0.001 0.001 0.537 0.556 0.513 0.572 0.489 0.586 0.465 0.599 0.441 0.611 0.416 0.623 0.393 0.635 0.368 0.645 0.345 0.656 0.319 0.663 0.296 0.672 0.271 0.681 0.247 0.687 0.223 0.693 0.198 0.699 0.175 0.704 0.15 0.709 0.125 0.711 0.102 0.716 0.077 0.717 0.053 0.719 0.029 0.72 0.004 0.721 -0.019 0.721 -0.044 0.72 -0.069 0.718 -0.092 0.716 -0.116 0.713 -0.141 0.71 -0.165 0.706 -0.19 0.701 -0.213 0.695 -3.959 -1.29 0.172 -0.56 0.153 -0.564 0.132 -0.567 0.114 -0.572 0.094 -0.574 0.074 -0.578 0.055 -0.579 0.036 -0.58 0.015 -0.58 -0.003 -0.58 -0.024 -0.581 -0.042 -0.579 -0.063 -0.578 -0.081 -0.576 -0.102 -0.574 -0.12 -0.57 -0.14 -0.566 -0.16 -0.563 -0.179 -0.557 -0.199 -0.553 -0.218 -0.546 -0.237 -0.54 -0.257 -0.534 -0.276 -0.526 -0.296 -0.518 -0.316 -0.51 -0.335 -0.502 -0.354 -0.491 -0.375 -0.482 -0.394 -0.472 -0.413 -0.461 -0.435 -0.45 0.001 0.001zm-0.001 -0.001c-0.812,-0.813 -0.811,-2.132 0.002,-2.944 0.813,-0.812 2.132,-0.812 2.944,0.002l-2.946 2.942zm-19.919 -5.127l3.626 -2.047 -2.459 -0.955 0.695 -0.215 0.701 -0.189 0.706 -0.166 0.711 -0.141 0.713 -0.117 0.716 -0.093 0.718 -0.068 0.72 -0.044 0.72 -0.02 0.721 0.004 0.721 0.028 0.719 0.053 0.717 0.077 0.716 0.102 0.712 0.125 0.708 0.15 0.705 0.174 0.698 0.199 0.694 0.222 0.687 0.248 0.68 0.271 0.673 0.296 0.664 0.32 0.654 0.344 0.646 0.369 0.635 0.393 0.623 0.417 0.611 0.441 0.6 0.466 0.585 0.489 0.572 0.513 0.556 0.538 -2.944 2.944 -0.45 -0.435 -0.461 -0.414 -0.471 -0.394 -0.482 -0.374 -0.492 -0.355 -0.501 -0.335 -0.51 -0.316 -0.518 -0.296 -0.526 -0.277 -0.534 -0.257 -0.54 -0.237 -0.546 -0.219 -0.552 -0.198 -0.557 -0.179 -0.564 -0.16 -0.566 -0.14 -0.57 -0.121 -0.573 -0.101 -0.576 -0.081 -0.579 -0.063 -0.579 -0.042 -0.579 -0.023 -0.58 -0.003 -0.582 0.016 -0.58 0.036 -0.578 0.054 -0.577 0.075 -0.575 0.094 -0.571 0.114 -0.568 0.133 -0.564 0.153 -0.559 0.172 -2.46 -0.955zm2.46 0.955c-1.093,0.357 -2.269,-0.24 -2.626,-1.332 -0.357,-1.093 0.24,-2.268 1.333,-2.625l1.293 3.957zm-7.484 -18.067l1.882 3.714 1.064 -2.414 0.129 0.454 0.131 0.454 0.135 0.451 0.139 0.45 0.141 0.45 0.145 0.446 0.149 0.446 0.151 0.445 0.155 0.442 0.158 0.441 0.161 0.44 0.164 0.438 0.168 0.436 0.171 0.435 0.174 0.433 0.178 0.431 0.18 0.431 0.183 0.427 0.187 0.426 0.19 0.426 0.193 0.423 0.196 0.422 0.199 0.419 0.202 0.418 0.205 0.417 0.208 0.414 0.211 0.412 0.215 0.412 0.217 0.41 0.22 0.407 0.223 0.406 0.226 0.403 -3.626 2.047 -0.241 -0.431 -0.238 -0.434 -0.235 -0.434 -0.231 -0.436 -0.229 -0.439 -0.225 -0.441 -0.222 -0.443 -0.219 -0.443 -0.216 -0.447 -0.212 -0.448 -0.21 -0.449 -0.205 -0.453 -0.203 -0.453 -0.199 -0.455 -0.197 -0.458 -0.192 -0.459 -0.189 -0.46 -0.187 -0.464 -0.182 -0.463 -0.179 -0.466 -0.176 -0.468 -0.172 -0.469 -0.169 -0.472 -0.165 -0.472 -0.162 -0.474 -0.158 -0.476 -0.155 -0.479 -0.151 -0.478 -0.148 -0.481 -0.144 -0.483 -0.141 -0.484 -0.137 -0.486 1.065 -2.414zm-1.065 2.414c-0.307,-1.107 0.341,-2.255 1.449,-2.563 1.107,-0.307 2.255,0.341 2.562,1.449l-4.011 1.114zm10.459 -17.711l4.163 0 0 0 -0.013 0.773 -0.042 0.768 -0.068 0.76 -0.094 0.753 -0.12 0.744 -0.146 0.736 -0.171 0.727 -0.195 0.717 -0.22 0.707 -0.243 0.696 -0.266 0.685 -0.289 0.673 -0.311 0.66 -0.333 0.648 -0.354 0.635 -0.375 0.621 -0.395 0.607 -0.414 0.593 -0.434 0.577 -0.454 0.563 -0.471 0.545 -0.489 0.53 -0.506 0.513 -0.524 0.495 -0.541 0.478 -0.556 0.459 -0.572 0.441 -0.587 0.421 -0.602 0.402 -0.616 0.382 -0.63 0.361 -0.644 0.341 -1.882 -3.714 0.517 -0.273 0.507 -0.291 0.496 -0.307 0.484 -0.323 0.472 -0.34 0.461 -0.355 0.448 -0.369 0.435 -0.385 0.422 -0.399 0.408 -0.413 0.394 -0.427 0.38 -0.44 0.364 -0.452 0.349 -0.465 0.335 -0.477 0.317 -0.488 0.301 -0.5 0.286 -0.511 0.267 -0.52 0.25 -0.531 0.232 -0.541 0.214 -0.551 0.195 -0.559 0.177 -0.567 0.156 -0.576 0.138 -0.584 0.117 -0.591 0.097 -0.6 0.076 -0.605 0.055 -0.613 0.033 -0.619 0.011 -0.625 0 0zm0 0c0,-1.149 0.932,-2.082 2.082,-2.082 1.149,0 2.081,0.933 2.081,2.082l-4.163 0zm-10.459 -17.712l4.011 1.116 -1.063 -2.414 0.643 0.34 0.63 0.361 0.616 0.383 0.603 0.402 0.586 0.422 0.573 0.441 0.555 0.459 0.541 0.478 0.524 0.495 0.506 0.513 0.489 0.53 0.471 0.545 0.454 0.562 0.433 0.578 0.415 0.592 0.395 0.607 0.375 0.621 0.354 0.635 0.333 0.648 0.311 0.66 0.289 0.673 0.266 0.685 0.243 0.695 0.22 0.707 0.195 0.717 0.171 0.727 0.146 0.736 0.12 0.744 0.094 0.752 0.068 0.761 0.042 0.767 0.013 0.774 -4.163 0 -0.011 -0.625 -0.033 -0.619 -0.055 -0.613 -0.076 -0.606 -0.097 -0.598 -0.117 -0.592 -0.138 -0.584 -0.156 -0.575 -0.177 -0.568 -0.195 -0.559 -0.214 -0.55 -0.232 -0.541 -0.25 -0.531 -0.267 -0.52 -0.286 -0.511 -0.301 -0.499 -0.317 -0.488 -0.334 -0.477 -0.35 -0.465 -0.364 -0.452 -0.38 -0.44 -0.394 -0.427 -0.408 -0.413 -0.422 -0.399 -0.435 -0.385 -0.449 -0.37 -0.46 -0.356 -0.473 -0.339 -0.484 -0.324 -0.496 -0.307 -0.506 -0.291 -0.518 -0.274 -1.064 -2.414zm1.064 2.414c-1.025,-0.52 -1.435,-1.774 -0.915,-2.798 0.521,-1.025 1.774,-1.434 2.799,-0.914l-1.884 3.712zm7.485 -18.066l-1.293 3.957 2.459 -0.955 -0.226 0.403 -0.223 0.406 -0.22 0.407 -0.217 0.41 -0.215 0.412 -0.21 0.411 -0.208 0.415 -0.206 0.417 -0.202 0.417 -0.198 0.42 -0.197 0.423 -0.193 0.423 -0.189 0.425 -0.188 0.427 -0.183 0.428 -0.18 0.43 -0.178 0.432 -0.174 0.433 -0.17 0.435 -0.169 0.436 -0.164 0.438 -0.161 0.44 -0.158 0.441 -0.155 0.442 -0.151 0.445 -0.149 0.446 -0.145 0.446 -0.142 0.449 -0.138 0.45 -0.135 0.452 -0.131 0.452 -0.129 0.455 -4.011 -1.116 0.137 -0.485 0.141 -0.483 0.144 -0.483 0.148 -0.481 0.151 -0.478 0.155 -0.478 0.158 -0.476 0.162 -0.474 0.165 -0.473 0.169 -0.471 0.172 -0.469 0.176 -0.468 0.179 -0.465 0.182 -0.464 0.187 -0.463 0.188 -0.461 0.193 -0.459 0.197 -0.458 0.199 -0.456 0.203 -0.453 0.205 -0.452 0.209 -0.449 0.212 -0.449 0.217 -0.447 0.218 -0.444 0.222 -0.443 0.226 -0.441 0.229 -0.439 0.231 -0.436 0.235 -0.434 0.238 -0.434 0.241 -0.431 2.46 -0.955zm-2.46 0.955c0.565,-1.001 1.835,-1.354 2.836,-0.789 1.001,0.564 1.355,1.835 0.79,2.836l-3.626 -2.047zm19.919 -5.128l2.946 2.942 -0.001 0.001 -0.556 0.538 -0.572 0.513 -0.585 0.489 -0.6 0.466 -0.611 0.441 -0.624 0.417 -0.634 0.393 -0.645 0.368 -0.655 0.345 -0.665 0.32 -0.672 0.296 -0.68 0.271 -0.687 0.248 -0.693 0.222 -0.699 0.199 -0.705 0.174 -0.708 0.15 -0.712 0.126 -0.716 0.101 -0.717 0.077 -0.719 0.053 -0.721 0.029 -0.72 0.004 -0.721 -0.02 -0.72 -0.044 -0.718 -0.068 -0.716 -0.093 -0.713 -0.117 -0.711 -0.141 -0.706 -0.166 -0.701 -0.19 -0.695 -0.214 1.293 -3.957 0.559 0.172 0.564 0.153 0.568 0.133 0.571 0.113 0.575 0.095 0.577 0.075 0.578 0.054 0.58 0.036 0.581 0.016 0.58 -0.003 0.581 -0.023 0.579 -0.043 0.578 -0.062 0.576 -0.081 0.573 -0.102 0.57 -0.121 0.566 -0.14 0.563 -0.16 0.558 -0.179 0.552 -0.198 0.546 -0.218 0.54 -0.238 0.534 -0.257 0.525 -0.276 0.519 -0.297 0.51 -0.316 0.501 -0.334 0.492 -0.356 0.482 -0.374 0.471 -0.394 0.461 -0.414 0.45 -0.435 -0.001 0.001zm0.001 -0.001c0.813,-0.813 2.131,-0.813 2.944,0 0.813,0.813 0.813,2.131 0,2.944l-2.944 -2.944zm5.129 -19.919l2.047 3.625 0.956 -2.457 0.213 0.695 0.19 0.701 0.165 0.706 0.141 0.709 0.116 0.714 0.092 0.716 0.069 0.718 0.044 0.719 0.019 0.721 -0.004 0.721 -0.029 0.721 -0.053 0.719 -0.077 0.717 -0.102 0.715 -0.125 0.711 -0.15 0.709 -0.175 0.705 -0.198 0.698 -0.223 0.694 -0.247 0.687 -0.271 0.68 -0.296 0.672 -0.319 0.663 -0.345 0.656 -0.368 0.645 -0.393 0.635 -0.416 0.623 -0.441 0.611 -0.465 0.599 -0.489 0.586 -0.513 0.572 -0.537 0.556 -2.946 -2.942 0.435 -0.45 0.413 -0.461 0.394 -0.472 0.375 -0.482 0.354 -0.492 0.335 -0.501 0.316 -0.51 0.296 -0.518 0.276 -0.526 0.257 -0.534 0.237 -0.54 0.218 -0.546 0.199 -0.553 0.179 -0.557 0.16 -0.563 0.14 -0.566 0.12 -0.57 0.102 -0.574 0.081 -0.575 0.063 -0.579 0.042 -0.579 0.024 -0.581 0.003 -0.58 -0.015 -0.58 -0.036 -0.58 -0.055 -0.579 -0.074 -0.577 -0.094 -0.574 -0.114 -0.572 -0.132 -0.568 -0.153 -0.564 -0.172 -0.56 0.956 -2.457zm-0.956 2.457c-0.356,-1.092 0.242,-2.267 1.334,-2.624 1.093,-0.356 2.268,0.242 2.625,1.335l-3.959 1.289zm18.067 -7.482l-3.713 1.882 2.414 1.065 -0.454 0.128 -0.452 0.131 -0.452 0.135 -0.45 0.138 -0.448 0.142 -0.448 0.145 -0.446 0.148 -0.443 0.152 -0.443 0.155 -0.442 0.158 -0.438 0.161 -0.439 0.165 -0.436 0.168 -0.435 0.17 -0.433 0.174 -0.432 0.178 -0.43 0.18 -0.429 0.184 -0.426 0.186 -0.424 0.19 -0.424 0.193 -0.422 0.197 -0.421 0.199 -0.417 0.201 -0.416 0.205 -0.415 0.209 -0.414 0.211 -0.411 0.214 -0.408 0.217 -0.408 0.22 -0.406 0.223 -0.403 0.226 -2.047 -3.625 0.431 -0.242 0.433 -0.237 0.434 -0.235 0.438 -0.232 0.439 -0.228 0.44 -0.226 0.442 -0.222 0.445 -0.219 0.447 -0.216 0.448 -0.212 0.45 -0.209 0.451 -0.206 0.454 -0.203 0.456 -0.2 0.458 -0.196 0.459 -0.192 0.461 -0.189 0.462 -0.187 0.465 -0.182 0.465 -0.179 0.467 -0.176 0.471 -0.172 0.47 -0.169 0.472 -0.165 0.476 -0.162 0.475 -0.159 0.477 -0.154 0.479 -0.151 0.482 -0.149 0.481 -0.143 0.484 -0.141 0.485 -0.137 2.414 1.065zm-2.414 -1.065c1.108,-0.308 2.256,0.341 2.564,1.448 0.307,1.108 -0.341,2.256 -1.449,2.564l-1.115 -4.012zm17.712 10.465l0 4.163 0 0 -0.774 -0.014 -0.767 -0.041 -0.761 -0.068 -0.752 -0.095 -0.745 -0.12 -0.736 -0.146 -0.727 -0.171 -0.717 -0.196 -0.707 -0.22 -0.695 -0.243 -0.685 -0.266 -0.673 -0.29 -0.661 -0.311 -0.649 -0.333 -0.634 -0.354 -0.621 -0.375 -0.607 -0.396 -0.592 -0.414 -0.578 -0.435 -0.562 -0.453 -0.546 -0.472 -0.529 -0.489 -0.513 -0.506 -0.496 -0.525 -0.477 -0.54 -0.46 -0.557 -0.44 -0.571 -0.422 -0.588 -0.402 -0.602 -0.382 -0.616 -0.36 -0.63 -0.341 -0.644 3.713 -1.882 0.274 0.517 0.291 0.507 0.307 0.496 0.323 0.484 0.34 0.473 0.355 0.461 0.369 0.448 0.385 0.436 0.4 0.422 0.412 0.407 0.427 0.395 0.44 0.38 0.452 0.365 0.465 0.349 0.477 0.335 0.488 0.317 0.5 0.302 0.511 0.285 0.521 0.268 0.531 0.25 0.541 0.232 0.55 0.214 0.559 0.196 0.568 0.176 0.575 0.158 0.584 0.137 0.591 0.117 0.599 0.097 0.607 0.076 0.612 0.055 0.619 0.033 0.625 0.012 0 0zm0 0c1.149,0 2.081,0.932 2.081,2.081 0,1.149 -0.932,2.082 -2.081,2.082l0 -4.163zm17.712 -10.465l-1.116 4.012 2.415 -1.064 -0.341 0.644 -0.362 0.629 -0.382 0.617 -0.402 0.602 -0.422 0.587 -0.441 0.572 -0.459 0.557 -0.478 0.539 -0.496 0.525 -0.513 0.506 -0.529 0.49 -0.546 0.472 -0.562 0.452 -0.578 0.435 -0.592 0.414 -0.607 0.396 -0.622 0.375 -0.634 0.354 -0.648 0.333 -0.66 0.311 -0.673 0.289 -0.685 0.267 -0.696 0.243 -0.706 0.22 -0.717 0.196 -0.727 0.171 -0.736 0.146 -0.744 0.12 -0.752 0.095 -0.76 0.068 -0.768 0.041 -0.773 0.014 0 -4.163 0.625 -0.012 0.618 -0.033 0.612 -0.055 0.606 -0.076 0.599 -0.097 0.591 -0.117 0.583 -0.137 0.576 -0.157 0.567 -0.177 0.56 -0.196 0.549 -0.214 0.541 -0.232 0.531 -0.25 0.521 -0.268 0.511 -0.285 0.499 -0.302 0.489 -0.317 0.477 -0.335 0.465 -0.349 0.452 -0.365 0.44 -0.38 0.427 -0.395 0.413 -0.408 0.4 -0.422 0.385 -0.436 0.37 -0.448 0.355 -0.461 0.34 -0.472 0.323 -0.485 0.308 -0.496 0.291 -0.507 0.274 -0.517 2.414 -1.064zm-2.414 1.064c0.52,-1.025 1.774,-1.435 2.799,-0.914 1.024,0.52 1.434,1.773 0.914,2.798l-3.713 -1.884zm-81.957 145.156l0 4.163 0 0 -0.342 0.008 -0.338 0.026 -0.333 0.042 -0.325 0.058 -0.319 0.074 -0.313 0.089 -0.308 0.105 -0.301 0.118 -0.292 0.132 -0.285 0.146 -0.279 0.16 -0.268 0.172 -0.26 0.185 -0.25 0.197 -0.241 0.208 -0.23 0.22 -0.22 0.23 -0.209 0.241 -0.197 0.252 -0.185 0.259 -0.172 0.268 -0.16 0.278 -0.146 0.286 -0.132 0.292 -0.118 0.3 -0.105 0.308 -0.089 0.313 -0.073 0.319 -0.059 0.326 -0.042 0.332 -0.025 0.338 -0.009 0.342 -4.163 0 0.013 -0.553 0.042 -0.547 0.069 -0.539 0.094 -0.532 0.121 -0.523 0.146 -0.513 0.17 -0.502 0.193 -0.49 0.216 -0.479 0.239 -0.465 0.259 -0.451 0.281 -0.439 0.301 -0.423 0.32 -0.407 0.339 -0.39 0.357 -0.375 0.374 -0.356 0.391 -0.34 0.407 -0.319 0.422 -0.301 0.439 -0.281 0.451 -0.259 0.466 -0.239 0.479 -0.216 0.49 -0.193 0.501 -0.17 0.513 -0.146 0.524 -0.121 0.532 -0.094 0.539 -0.069 0.547 -0.042 0.553 -0.013 0 0zm0 0c1.149,0 2.082,0.932 2.082,2.081 0,1.149 -0.933,2.082 -2.082,2.082l0 -4.163zm10.788 10.787l-4.163 0 0 0 -0.009 -0.342 -0.025 -0.338 -0.042 -0.332 -0.059 -0.326 -0.073 -0.319 -0.09 -0.313 -0.104 -0.308 -0.118 -0.3 -0.132 -0.292 -0.147 -0.286 -0.159 -0.278 -0.172 -0.268 -0.185 -0.259 -0.197 -0.252 -0.209 -0.241 -0.219 -0.23 -0.231 -0.22 -0.241 -0.208 -0.25 -0.197 -0.26 -0.185 -0.269 -0.172 -0.278 -0.16 -0.285 -0.146 -0.292 -0.132 -0.301 -0.118 -0.308 -0.105 -0.313 -0.089 -0.319 -0.074 -0.326 -0.058 -0.331 -0.042 -0.338 -0.026 -0.343 -0.008 0 -4.163 0.554 0.013 0.546 0.042 0.539 0.069 0.532 0.094 0.524 0.121 0.513 0.146 0.501 0.17 0.49 0.193 0.479 0.216 0.466 0.239 0.451 0.259 0.438 0.281 0.423 0.301 0.407 0.319 0.391 0.34 0.375 0.356 0.357 0.375 0.338 0.39 0.32 0.407 0.301 0.423 0.28 0.439 0.26 0.451 0.238 0.465 0.217 0.479 0.193 0.49 0.17 0.502 0.146 0.513 0.12 0.523 0.095 0.532 0.069 0.539 0.041 0.547 0.014 0.553 0 0zm0 0c0,1.15 -0.932,2.082 -2.081,2.082 -1.15,0 -2.082,-0.932 -2.082,-2.082l4.163 0zm-10.788 10.789l0 -4.163 0 0 0.343 -0.009 0.338 -0.026 0.331 -0.041 0.326 -0.058 0.319 -0.075 0.314 -0.089 0.307 -0.104 0.3 -0.118 0.293 -0.133 0.286 -0.146 0.276 -0.159 0.27 -0.173 0.26 -0.185 0.25 -0.197 0.241 -0.208 0.23 -0.219 0.22 -0.231 0.209 -0.241 0.197 -0.251 0.185 -0.26 0.172 -0.268 0.159 -0.278 0.147 -0.285 0.132 -0.293 0.118 -0.3 0.104 -0.309 0.09 -0.313 0.073 -0.319 0.058 -0.325 0.043 -0.332 0.025 -0.338 0.009 -0.343 4.163 0 -0.014 0.554 -0.041 0.546 -0.069 0.54 -0.095 0.532 -0.12 0.523 -0.146 0.513 -0.17 0.502 -0.193 0.489 -0.216 0.479 -0.239 0.466 -0.26 0.452 -0.28 0.438 -0.301 0.423 -0.32 0.407 -0.338 0.39 -0.357 0.375 -0.375 0.357 -0.391 0.339 -0.407 0.32 -0.423 0.3 -0.437 0.281 -0.453 0.26 -0.465 0.238 -0.478 0.216 -0.491 0.194 -0.502 0.17 -0.512 0.145 -0.523 0.121 -0.533 0.095 -0.539 0.068 -0.546 0.042 -0.554 0.014 0 0zm0 0c-1.149,0 -2.081,-0.932 -2.081,-2.081 0,-1.15 0.932,-2.082 2.081,-2.082l0 4.163zm-10.788 -10.789l4.163 0 0 0 0.009 0.343 0.025 0.338 0.043 0.332 0.058 0.325 0.073 0.319 0.089 0.313 0.105 0.309 0.118 0.3 0.132 0.293 0.146 0.285 0.16 0.278 0.172 0.268 0.185 0.26 0.197 0.251 0.209 0.241 0.22 0.231 0.23 0.219 0.241 0.208 0.25 0.198 0.26 0.184 0.269 0.173 0.277 0.159 0.286 0.146 0.293 0.133 0.3 0.118 0.307 0.104 0.314 0.089 0.32 0.075 0.324 0.058 0.333 0.041 0.338 0.026 0.342 0.009 0 4.163 -0.553 -0.014 -0.547 -0.042 -0.539 -0.068 -0.533 -0.095 -0.523 -0.121 -0.512 -0.145 -0.502 -0.17 -0.491 -0.194 -0.478 -0.216 -0.465 -0.238 -0.453 -0.26 -0.438 -0.281 -0.422 -0.3 -0.407 -0.32 -0.391 -0.339 -0.375 -0.357 -0.356 -0.374 -0.339 -0.391 -0.32 -0.407 -0.301 -0.423 -0.281 -0.438 -0.259 -0.452 -0.239 -0.466 -0.216 -0.479 -0.193 -0.489 -0.17 -0.502 -0.146 -0.513 -0.121 -0.523 -0.095 -0.532 -0.068 -0.54 -0.042 -0.546 -0.013 -0.554 0 0zm0 0c0,-1.149 0.932,-2.081 2.081,-2.081 1.149,0 2.082,0.932 2.082,2.081l-4.163 0zm76.45 3.144l0 4.163 0 0 -0.342 0.009 -0.338 0.026 -0.332 0.042 -0.326 0.058 -0.319 0.074 -0.314 0.089 -0.307 0.104 -0.3 0.118 -0.293 0.133 -0.285 0.146 -0.277 0.159 -0.269 0.173 -0.26 0.185 -0.252 0.197 -0.24 0.208 -0.23 0.219 -0.22 0.231 -0.209 0.241 -0.196 0.25 -0.185 0.261 -0.173 0.269 -0.159 0.277 -0.146 0.285 -0.133 0.293 -0.119 0.3 -0.103 0.307 -0.09 0.314 -0.074 0.32 -0.057 0.325 -0.043 0.332 -0.025 0.338 -0.009 0.342 -4.163 0 0.014 -0.554 0.041 -0.546 0.069 -0.539 0.095 -0.533 0.121 -0.523 0.145 -0.512 0.17 -0.502 0.194 -0.491 0.216 -0.478 0.238 -0.466 0.261 -0.452 0.28 -0.437 0.3 -0.423 0.32 -0.407 0.339 -0.391 0.356 -0.374 0.375 -0.357 0.392 -0.339 0.407 -0.32 0.422 -0.3 0.437 -0.281 0.452 -0.26 0.466 -0.238 0.479 -0.216 0.491 -0.194 0.501 -0.17 0.513 -0.145 0.523 -0.121 0.532 -0.095 0.539 -0.068 0.547 -0.042 0.553 -0.014 0 0zm0 0c1.15,0 2.082,0.933 2.082,2.082 0,1.149 -0.932,2.081 -2.082,2.081l0 -4.163zm10.789 10.788l-4.163 0 0 0 -0.009 -0.342 -0.026 -0.338 -0.042 -0.332 -0.058 -0.325 -0.074 -0.32 -0.089 -0.314 -0.104 -0.307 -0.118 -0.3 -0.133 -0.293 -0.147 -0.286 -0.158 -0.276 -0.173 -0.269 -0.185 -0.261 -0.197 -0.25 -0.208 -0.241 -0.22 -0.23 -0.231 -0.22 -0.24 -0.208 -0.251 -0.197 -0.26 -0.185 -0.269 -0.173 -0.278 -0.159 -0.285 -0.147 -0.293 -0.132 -0.299 -0.118 -0.308 -0.104 -0.314 -0.089 -0.319 -0.074 -0.325 -0.058 -0.332 -0.042 -0.338 -0.026 -0.343 -0.009 0 -4.163 0.554 0.014 0.546 0.042 0.539 0.068 0.533 0.095 0.523 0.121 0.512 0.145 0.501 0.17 0.492 0.194 0.478 0.216 0.466 0.238 0.452 0.26 0.437 0.281 0.423 0.3 0.407 0.32 0.391 0.339 0.375 0.357 0.357 0.374 0.338 0.391 0.321 0.407 0.3 0.423 0.28 0.437 0.261 0.453 0.238 0.465 0.216 0.478 0.193 0.491 0.171 0.502 0.145 0.512 0.12 0.523 0.096 0.533 0.068 0.539 0.042 0.546 0.014 0.554 0 0zm0 0c0,1.149 -0.933,2.081 -2.082,2.081 -1.149,0 -2.081,-0.932 -2.081,-2.081l4.163 0zm-10.789 10.788l0 -4.163 0 0 0.343 -0.008 0.338 -0.026 0.332 -0.042 0.325 -0.059 0.319 -0.073 0.314 -0.089 0.307 -0.105 0.301 -0.118 0.292 -0.132 0.285 -0.146 0.278 -0.16 0.269 -0.172 0.26 -0.185 0.25 -0.197 0.241 -0.209 0.231 -0.22 0.22 -0.229 0.208 -0.242 0.197 -0.25 0.185 -0.26 0.172 -0.269 0.159 -0.277 0.147 -0.286 0.133 -0.293 0.118 -0.3 0.104 -0.307 0.089 -0.314 0.074 -0.32 0.058 -0.324 0.042 -0.333 0.026 -0.338 0.009 -0.342 4.163 0 -0.014 0.553 -0.042 0.547 -0.068 0.539 -0.096 0.533 -0.12 0.523 -0.145 0.512 -0.17 0.502 -0.194 0.491 -0.216 0.478 -0.238 0.465 -0.26 0.453 -0.281 0.438 -0.301 0.422 -0.32 0.407 -0.338 0.391 -0.358 0.375 -0.374 0.356 -0.39 0.339 -0.407 0.32 -0.424 0.301 -0.438 0.281 -0.451 0.259 -0.466 0.239 -0.479 0.216 -0.49 0.193 -0.501 0.17 -0.513 0.146 -0.523 0.121 -0.533 0.094 -0.539 0.069 -0.546 0.042 -0.554 0.013 0 0zm0 0c-1.149,0 -2.081,-0.932 -2.081,-2.081 0,-1.149 0.932,-2.082 2.081,-2.082l0 4.163zm-10.788 -10.788l4.163 0 0 0 0.009 0.342 0.025 0.338 0.043 0.333 0.057 0.324 0.074 0.32 0.09 0.314 0.104 0.307 0.118 0.3 0.132 0.293 0.147 0.285 0.16 0.278 0.172 0.269 0.184 0.26 0.197 0.25 0.209 0.242 0.22 0.23 0.23 0.219 0.241 0.209 0.251 0.197 0.26 0.185 0.268 0.172 0.278 0.16 0.285 0.146 0.293 0.132 0.301 0.119 0.307 0.104 0.313 0.089 0.319 0.073 0.326 0.059 0.332 0.042 0.338 0.026 0.342 0.008 0 4.163 -0.553 -0.013 -0.547 -0.042 -0.539 -0.069 -0.532 -0.094 -0.523 -0.121 -0.514 -0.146 -0.501 -0.17 -0.49 -0.193 -0.479 -0.216 -0.466 -0.239 -0.451 -0.259 -0.438 -0.281 -0.423 -0.301 -0.407 -0.32 -0.391 -0.339 -0.374 -0.357 -0.357 -0.374 -0.339 -0.391 -0.319 -0.407 -0.301 -0.422 -0.281 -0.438 -0.26 -0.452 -0.238 -0.466 -0.216 -0.478 -0.194 -0.491 -0.17 -0.502 -0.145 -0.512 -0.121 -0.523 -0.095 -0.533 -0.069 -0.539 -0.041 -0.547 -0.014 -0.553 0 0zm0 0c0,-1.149 0.932,-2.082 2.081,-2.082 1.15,0 2.082,0.933 2.082,2.082l-4.163 0zm78.444 -24.719l0 4.163 0 0 -0.342 0.008 -0.338 0.026 -0.332 0.042 -0.326 0.058 -0.319 0.074 -0.313 0.089 -0.308 0.105 -0.301 0.118 -0.292 0.132 -0.285 0.146 -0.278 0.16 -0.269 0.172 -0.26 0.185 -0.25 0.197 -0.24 0.208 -0.231 0.22 -0.22 0.23 -0.208 0.241 -0.198 0.252 -0.185 0.259 -0.172 0.268 -0.159 0.278 -0.147 0.286 -0.132 0.292 -0.118 0.3 -0.104 0.308 -0.09 0.313 -0.073 0.319 -0.059 0.326 -0.041 0.332 -0.026 0.338 -0.009 0.342 -4.163 0 0.014 -0.553 0.042 -0.547 0.068 -0.539 0.095 -0.532 0.121 -0.523 0.145 -0.513 0.17 -0.502 0.193 -0.49 0.217 -0.479 0.238 -0.465 0.26 -0.451 0.28 -0.439 0.301 -0.423 0.32 -0.407 0.339 -0.39 0.357 -0.375 0.373 -0.356 0.392 -0.34 0.408 -0.319 0.422 -0.301 0.438 -0.281 0.451 -0.259 0.466 -0.239 0.479 -0.216 0.49 -0.193 0.501 -0.17 0.513 -0.146 0.524 -0.121 0.532 -0.094 0.539 -0.069 0.546 -0.042 0.554 -0.013 0 0zm0 0c1.149,0 2.081,0.932 2.081,2.081 0,1.149 -0.932,2.082 -2.081,2.082l0 -4.163zm10.788 10.787l-4.163 0 0 0 -0.009 -0.342 -0.026 -0.338 -0.042 -0.332 -0.058 -0.326 -0.073 -0.319 -0.09 -0.313 -0.104 -0.309 -0.118 -0.298 -0.132 -0.293 -0.146 -0.286 -0.16 -0.277 -0.173 -0.269 -0.184 -0.26 -0.197 -0.251 -0.208 -0.241 -0.22 -0.23 -0.23 -0.22 -0.242 -0.208 -0.25 -0.197 -0.26 -0.185 -0.268 -0.172 -0.278 -0.16 -0.285 -0.146 -0.293 -0.132 -0.301 -0.119 -0.307 -0.104 -0.313 -0.089 -0.32 -0.074 -0.325 -0.058 -0.333 -0.042 -0.338 -0.026 -0.342 -0.008 0 -4.163 0.553 0.013 0.547 0.042 0.54 0.069 0.531 0.094 0.524 0.121 0.513 0.146 0.502 0.17 0.489 0.193 0.479 0.216 0.466 0.239 0.451 0.259 0.439 0.281 0.422 0.301 0.407 0.319 0.391 0.34 0.375 0.356 0.356 0.375 0.339 0.39 0.32 0.408 0.301 0.423 0.28 0.437 0.26 0.452 0.238 0.465 0.217 0.478 0.193 0.492 0.17 0.502 0.145 0.512 0.121 0.523 0.095 0.532 0.068 0.539 0.042 0.547 0.014 0.553 0 0zm0 0c0,1.15 -0.932,2.082 -2.082,2.082 -1.149,0 -2.081,-0.932 -2.081,-2.082l4.163 0zm-10.788 10.789l0 -4.163 0 0 0.342 -0.009 0.338 -0.026 0.333 -0.041 0.324 -0.058 0.321 -0.075 0.313 -0.089 0.307 -0.104 0.3 -0.118 0.294 -0.133 0.285 -0.146 0.277 -0.159 0.269 -0.173 0.26 -0.184 0.25 -0.198 0.242 -0.208 0.229 -0.219 0.221 -0.231 0.208 -0.241 0.197 -0.251 0.184 -0.26 0.173 -0.269 0.16 -0.277 0.145 -0.285 0.133 -0.294 0.118 -0.299 0.104 -0.308 0.09 -0.314 0.073 -0.319 0.058 -0.325 0.042 -0.332 0.026 -0.338 0.009 -0.343 4.163 0 -0.014 0.554 -0.042 0.546 -0.068 0.54 -0.095 0.532 -0.121 0.523 -0.145 0.512 -0.17 0.502 -0.193 0.491 -0.216 0.478 -0.239 0.466 -0.26 0.452 -0.28 0.438 -0.301 0.422 -0.32 0.408 -0.339 0.391 -0.356 0.374 -0.375 0.357 -0.391 0.339 -0.407 0.32 -0.422 0.3 -0.438 0.281 -0.453 0.26 -0.465 0.238 -0.478 0.216 -0.49 0.194 -0.503 0.17 -0.512 0.145 -0.523 0.121 -0.532 0.095 -0.54 0.068 -0.547 0.042 -0.553 0.014 0 0zm0 0c-1.149,0 -2.081,-0.932 -2.081,-2.081 0,-1.15 0.932,-2.082 2.081,-2.082l0 4.163zm-10.788 -10.789l4.163 0 0 0 0.009 0.343 0.026 0.338 0.042 0.332 0.058 0.325 0.073 0.319 0.09 0.313 0.104 0.309 0.118 0.3 0.133 0.293 0.146 0.285 0.159 0.278 0.172 0.268 0.185 0.26 0.198 0.251 0.208 0.241 0.22 0.231 0.231 0.22 0.24 0.207 0.25 0.197 0.26 0.185 0.27 0.173 0.276 0.159 0.286 0.146 0.293 0.133 0.3 0.118 0.307 0.104 0.314 0.089 0.32 0.075 0.325 0.058 0.332 0.041 0.338 0.026 0.342 0.009 0 4.163 -0.554 -0.014 -0.546 -0.042 -0.539 -0.068 -0.533 -0.095 -0.523 -0.121 -0.512 -0.145 -0.502 -0.17 -0.491 -0.194 -0.478 -0.216 -0.465 -0.238 -0.453 -0.26 -0.437 -0.281 -0.422 -0.3 -0.408 -0.32 -0.392 -0.339 -0.374 -0.357 -0.356 -0.374 -0.339 -0.391 -0.32 -0.407 -0.301 -0.423 -0.28 -0.438 -0.26 -0.452 -0.239 -0.466 -0.216 -0.479 -0.193 -0.489 -0.17 -0.502 -0.145 -0.513 -0.121 -0.523 -0.095 -0.532 -0.068 -0.54 -0.042 -0.546 -0.014 -0.554 0 0zm0 0c0,-1.149 0.932,-2.081 2.081,-2.081 1.15,0 2.082,0.932 2.082,2.081l-4.163 0zm-75.548 -112.961c-0.809,0.816 -2.128,0.822 -2.944,0.013 -0.816,-0.809 -0.822,-2.128 -0.013,-2.944l2.957 2.931zm19.677 -12.366l0 4.163 0 0 -0.721 0.009 -0.715 0.027 -0.71 0.045 -0.705 0.064 -0.7 0.08 -0.695 0.098 -0.689 0.114 -0.682 0.132 -0.677 0.148 -0.67 0.165 -0.663 0.181 -0.657 0.196 -0.651 0.213 -0.643 0.228 -0.634 0.242 -0.628 0.259 -0.621 0.273 -0.611 0.287 -0.605 0.303 -0.595 0.316 -0.587 0.33 -0.578 0.345 -0.568 0.357 -0.56 0.371 -0.55 0.384 -0.54 0.397 -0.529 0.409 -0.521 0.422 -0.509 0.434 -0.498 0.446 -0.488 0.458 -0.477 0.47 -2.957 -2.931 0.548 -0.539 0.56 -0.527 0.573 -0.512 0.586 -0.5 0.597 -0.484 0.61 -0.471 0.621 -0.456 0.632 -0.442 0.643 -0.427 0.654 -0.411 0.665 -0.395 0.675 -0.381 0.686 -0.364 0.694 -0.347 0.705 -0.331 0.713 -0.315 0.723 -0.297 0.733 -0.28 0.74 -0.262 0.748 -0.245 0.756 -0.227 0.765 -0.208 0.771 -0.189 0.78 -0.17 0.785 -0.152 0.793 -0.132 0.798 -0.113 0.806 -0.092 0.81 -0.073 0.816 -0.052 0.822 -0.031 0.826 -0.01 0 0zm0 0c1.149,0 2.081,0.932 2.081,2.081 0,1.149 -0.932,2.082 -2.081,2.082l0 -4.163zm22.634 9.435l-2.957 2.931 -0.477 -0.47 -0.488 -0.458 -0.498 -0.446 -0.509 -0.434 -0.52 -0.422 -0.53 -0.409 -0.54 -0.397 -0.55 -0.384 -0.559 -0.371 -0.569 -0.357 -0.578 -0.345 -0.586 -0.33 -0.596 -0.316 -0.604 -0.303 -0.612 -0.287 -0.62 -0.273 -0.628 -0.259 -0.635 -0.242 -0.643 -0.228 -0.65 -0.213 -0.657 -0.196 -0.664 -0.181 -0.67 -0.165 -0.677 -0.148 -0.682 -0.132 -0.689 -0.114 -0.695 -0.098 -0.699 -0.08 -0.706 -0.064 -0.71 -0.045 -0.715 -0.027 -0.721 -0.009 0 -4.163 0.826 0.01 0.821 0.031 0.817 0.052 0.811 0.073 0.805 0.092 0.798 0.113 0.793 0.132 0.786 0.152 0.778 0.17 0.772 0.189 0.765 0.208 0.757 0.227 0.748 0.245 0.74 0.262 0.732 0.28 0.723 0.297 0.714 0.315 0.704 0.331 0.695 0.347 0.685 0.364 0.675 0.381 0.665 0.395 0.655 0.411 0.643 0.427 0.632 0.442 0.62 0.456 0.61 0.471 0.597 0.485 0.586 0.499 0.573 0.512 0.56 0.527 0.548 0.539zm0 0c0.809,0.816 0.803,2.135 -0.014,2.944 -0.816,0.809 -2.134,0.803 -2.943,-0.013l2.957 -2.931zm-2.958 41.933c0.81,-0.816 2.128,-0.822 2.944,-0.013 0.817,0.809 0.823,2.128 0.013,2.944l-2.957 -2.931zm-19.676 12.366l0 -4.163 0 0 0.721 -0.009 0.715 -0.027 0.71 -0.046 0.706 -0.063 0.699 -0.08 0.695 -0.098 0.688 -0.115 0.683 -0.131 0.676 -0.149 0.671 -0.164 0.663 -0.181 0.657 -0.196 0.65 -0.213 0.644 -0.228 0.635 -0.243 0.627 -0.258 0.62 -0.273 0.612 -0.288 0.605 -0.302 0.595 -0.316 0.586 -0.331 0.578 -0.344 0.569 -0.357 0.559 -0.371 0.551 -0.384 0.54 -0.397 0.529 -0.409 0.521 -0.423 0.509 -0.433 0.498 -0.446 0.488 -0.458 0.476 -0.47 2.957 2.931 -0.547 0.539 -0.561 0.526 -0.573 0.513 -0.586 0.499 -0.597 0.485 -0.609 0.471 -0.621 0.456 -0.632 0.442 -0.644 0.426 -0.654 0.412 -0.664 0.395 -0.675 0.38 -0.685 0.364 -0.696 0.348 -0.704 0.331 -0.713 0.314 -0.724 0.298 -0.732 0.28 -0.74 0.262 -0.748 0.244 -0.757 0.228 -0.764 0.207 -0.772 0.19 -0.778 0.17 -0.786 0.152 -0.793 0.132 -0.799 0.113 -0.804 0.092 -0.811 0.072 -0.817 0.053 -0.821 0.031 -0.826 0.01 0 0zm0 0c-1.149,0 -2.082,-0.932 -2.082,-2.081 0,-1.15 0.933,-2.082 2.082,-2.082l0 4.163zm-22.634 -9.436l2.957 -2.93 0.477 0.47 0.488 0.458 0.498 0.446 0.51 0.434 0.52 0.422 0.529 0.409 0.54 0.397 0.55 0.384 0.559 0.371 0.569 0.357 0.578 0.344 0.586 0.331 0.596 0.316 0.604 0.302 0.612 0.288 0.62 0.273 0.628 0.258 0.635 0.243 0.643 0.228 0.65 0.213 0.657 0.197 0.664 0.18 0.67 0.164 0.677 0.149 0.682 0.131 0.689 0.115 0.694 0.098 0.7 0.08 0.706 0.063 0.71 0.046 0.715 0.027 0.721 0.009 0 4.163 -0.826 -0.01 -0.822 -0.031 -0.816 -0.053 -0.811 -0.072 -0.805 -0.092 -0.798 -0.113 -0.793 -0.132 -0.786 -0.152 -0.779 -0.17 -0.772 -0.19 -0.764 -0.208 -0.756 -0.227 -0.749 -0.244 -0.74 -0.262 -0.732 -0.28 -0.723 -0.298 -0.713 -0.314 -0.705 -0.331 -0.695 -0.348 -0.685 -0.363 -0.676 -0.381 -0.664 -0.395 -0.654 -0.412 -0.644 -0.426 -0.632 -0.442 -0.62 -0.456 -0.611 -0.471 -0.596 -0.485 -0.586 -0.499 -0.573 -0.513 -0.56 -0.526 -0.548 -0.54zm0 0c-0.808,-0.816 -0.802,-2.134 0.014,-2.943 0.816,-0.809 2.134,-0.803 2.943,0.013l-2.957 2.93z"/>
   </g>
   <path class="fil2" d="M55.962 48.258l69.98 0c3.054,0 5.551,2.497 5.551,5.551l0 19.728c0,3.054 -2.497,5.551 -5.551,5.551l-69.98 0c-3.054,0 -5.551,-2.497 -5.551,-5.551l0 -19.728c0,-3.054 2.497,-5.551 5.551,-5.551zm2.716 4.448l18.136 0 0 4.687 -11.335 0 0 3.492 10.508 0 0 4.473 -10.508 0 0 4.32 11.672 0 0 4.962 -18.473 0 0 -21.934zm22.215 21.934l0 -21.934 11.294 0c2.094,0 3.697,0.178 4.8,0.541 1.108,0.357 2.001,1.026 2.681,1.996 0.678,0.975 1.015,2.165 1.015,3.564 0,1.215 -0.26,2.267 -0.781,3.151 -0.516,0.888 -1.23,1.603 -2.145,2.154 -0.576,0.347 -1.373,0.638 -2.379,0.868 0.807,0.27 1.394,0.536 1.762,0.807 0.245,0.178 0.607,0.566 1.083,1.154 0.469,0.587 0.786,1.041 0.944,1.363l3.293 6.336 -7.658 0 -3.621 -6.688c-0.459,-0.869 -0.868,-1.43 -1.225,-1.69 -0.49,-0.338 -1.047,-0.506 -1.664,-0.506l-0.598 0 0 8.884 -6.801 0zm6.801 -13.02l2.864 0c0.307,0 0.909,-0.102 1.798,-0.301 0.449,-0.086 0.817,-0.316 1.097,-0.689 0.286,-0.373 0.429,-0.797 0.429,-1.277 0,-0.71 -0.224,-1.255 -0.673,-1.634 -0.45,-0.382 -1.292,-0.571 -2.533,-0.571l-2.982 0 0 4.472zm16.906 -8.914l11.273 0c2.456,0 4.294,0.582 5.519,1.751 1.221,1.169 1.834,2.834 1.834,4.993 0,2.216 -0.67,3.953 -2.002,5.198 -1.333,1.251 -3.37,1.874 -6.107,1.874l-3.716 0 0 8.118 -6.801 0 0 -21.934zm6.801 9.374l1.669 0c1.317,0 2.241,-0.23 2.772,-0.684 0.531,-0.455 0.797,-1.037 0.797,-1.747 0,-0.689 -0.23,-1.271 -0.694,-1.751 -0.46,-0.48 -1.328,-0.72 -2.604,-0.72l-1.94 0 0 4.902z"/>
  </g>
 </g>
</svg>
